<?xml version="1.0" encoding="UTF-8" standalone="no"?>
<svg
   enable-background="new 0 0 64 64"
   version="1.1"
   viewBox="0 0 64 64"
   xml:space="preserve"
   id="svg1"
   xmlns="http://www.w3.org/2000/svg"
   xmlns:svg="http://www.w3.org/2000/svg"><defs
   id="defs1" />
<style
   type="text/css"
   id="style1">
	.st0{display:none;}
	.st1{display:inline;fill:#FFFFFF;}
	.st2{display:inline;}
	.st3{fill:none;stroke:#4C5159;stroke-width:2;stroke-miterlimit:10;}
	.st4{display:inline;fill:none;stroke:#4C5159;stroke-width:2;stroke-miterlimit:10;}
	.st5{display:inline;fill:none;stroke:#4C5159;stroke-width:2;stroke-miterlimit:10;stroke-dasharray:2;}
	.st6{fill:none;stroke:#4C5159;stroke-width:2;stroke-miterlimit:10;stroke-dasharray:1.9857,1.9857;}
	.st7{display:inline;fill:none;stroke:#4C5159;stroke-width:2;stroke-miterlimit:10;stroke-dasharray:1.9857,1.9857;}
	.st8{fill:#4C5159;}
	.st9{font-family:'Montserrat-Bold';}
	.st10{font-size:7px;}
	.st11{display:inline;fill:#74E2F0;}
	.st12{display:inline;fill:#FBDA73;}
	.st13{display:inline;fill:#F08E70;}
</style>





<path
   d="m 33.03125,12.357422 a 20,20 0 0 0 -20,20 20,20 0 0 0 20,20 20,20 0 0 0 20,-20 20,20 0 0 0 -20,-20 z m 0.851562,4.550781 c 2.581733,1e-6 5.076628,0.313098 7.480469,0.939453 l 0.357422,0.421875 v 6.533203 l -0.5,0.439453 h -2.121094 l -0.488281,-0.34375 -1,-3.966796 c -1.006047,-0.633241 -2.067483,-0.958985 -3.242187,-0.958985 -1.411279,0 -2.548089,0.749695 -3.525391,2.492188 v 0.002 l -0.002,0.002 c -0.888522,1.613361 -1.423653,3.949365 -1.644531,6.849609 C 30.76256,28.808824 32.329074,28.5 33.882812,28.5 c 3.068437,0 5.518558,0.773287 7.234375,2.341797 1.733301,1.569347 2.578125,3.812842 2.578125,6.644531 0,3.089226 -0.917206,5.533923 -2.796875,7.246094 l -0.002,0.002 c -1.878845,1.696277 -4.555916,2.53125 -7.916015,2.53125 -3.865407,0 -6.932002,-1.328841 -9.015625,-3.933594 l -0.0039,-0.002 c -2.06789,-2.606273 -3.064453,-6.317647 -3.064453,-11.113281 0,-3.128421 0.52709,-5.85067 1.597657,-8.158203 l 0.0039,-0.002 c 1.085012,-2.302689 2.613537,-4.085465 4.585937,-5.310547 1.969034,-1.222991 4.25386,-1.837891 6.798828,-1.837891 z m -1.634765,15.146484 c -1.031238,10e-7 -2.092141,0.171314 -3.169922,0.425782 0.01735,3.976538 0.369553,6.995497 1.044922,8.943359 0.346129,0.998286 0.775319,1.719055 1.240234,2.166016 0.464917,0.446962 0.936825,0.634765 1.519531,0.634765 1.006511,10e-7 1.580732,-0.385217 1.990235,-1.40039 0.420133,-1.041529 0.654297,-2.698924 0.654297,-4.929688 0,-1.97342 -0.317839,-3.461785 -0.894532,-4.449219 -0.573016,-0.981137 -1.29739,-1.390625 -2.384765,-1.390625 z"
   style="fill:#b21212;fill-rule:evenodd;stroke-width:1.7802;stroke-linecap:square;stroke-miterlimit:1"
   id="path10" /><path
   d="m 33.882812,17.785156 c -2.36418,0 -4.420423,0.558346 -6.222656,1.677735 -1.798864,1.117297 -3.212037,2.747576 -4.240234,4.929687 -1.009184,2.176643 -1.523438,4.783908 -1.523438,7.824219 0,4.687328 0.986973,8.216688 2.884766,10.609375 v 0.002 c 1.915151,2.393435 4.587706,3.560547 8.199219,3.560547 3.173327,0 5.534484,-0.763747 7.199218,-2.265625 v -0.002 h 0.002 c 1.662752,-1.515672 2.513671,-3.697786 2.513671,-6.634766 0,-2.680799 -0.777961,-4.662297 -2.294921,-6.035156 l -0.002,-0.002 c -1.502762,-1.373748 -3.634565,-2.072266 -6.515625,-2.072266 -1.666218,0 -3.353023,0.320082 -5.070312,0.970703 l -0.695313,-0.423828 c 0.180739,-3.320456 0.774184,-5.928014 1.828125,-7.839844 v -0.002 c 1.070323,-1.910725 2.585219,-2.988281 4.423829,-2.988281 1.438504,0 2.784863,0.41014 3.982421,1.203125 l 0.1875,0.255859 L 39.5,24.363281 h 1.220703 v -5.720703 c -2.203396,-0.543502 -4.471961,-0.857422 -6.837891,-0.857422 z m -1.634765,13.392578 c 1.415964,0 2.576574,0.675387 3.271484,1.865235 0.691233,1.183554 1.00586,2.797234 1.00586,4.851562 0,2.282601 -0.218813,4.007501 -0.708985,5.222656 -0.500802,1.24151 -1.566808,1.984375 -2.933594,1.984375 -0.855902,0 -1.643771,-0.329595 -2.257812,-0.919921 -0.61404,-0.590327 -1.085809,-1.425663 -1.458984,-2.501954 -0.746351,-2.152582 -1.09961,-5.291458 -1.09961,-9.46289 v -0.109375 l 0.357422,-0.417969 c 1.293705,-0.339537 2.569579,-0.511719 3.824219,-0.511719 z"
   style="font-weight:bold;font-size:46.8088px;line-height:1;font-family:'Liberation Serif';text-align:center;letter-spacing:0.38px;baseline-shift:baseline;white-space:pre;display:inline;overflow:visible;vector-effect:none;fill:#ffffff;fill-rule:evenodd;stroke-linecap:square;stroke-miterlimit:1;enable-background:accumulate;stop-color:#000000;stop-opacity:1"
   id="path9" /><path
   d="m 33.882812,16.908203 c -2.544968,0 -4.829794,0.6149 -6.798828,1.837891 -1.9724,1.225082 -3.500925,3.007858 -4.585937,5.310547 l -0.0039,0.002 c -1.070567,2.307533 -1.597657,5.029782 -1.597657,8.158203 0,4.795634 0.996563,8.507008 3.064453,11.113281 l 0.0039,0.002 c 2.083623,2.604753 5.150218,3.933594 9.015625,3.933594 3.360099,0 6.03717,-0.834973 7.916015,-2.53125 l 0.002,-0.002 c 1.879669,-1.712171 2.796875,-4.156868 2.796875,-7.246094 0,-2.831689 -0.844824,-5.075184 -2.578125,-6.644531 C 39.40137,29.273287 36.951249,28.5 33.882812,28.5 c -1.553738,0 -3.120252,0.308824 -4.685546,0.818359 0.220878,-2.900244 0.756009,-5.236248 1.644531,-6.849609 l 0.002,-0.002 c 0,0 0,-0.002 0,-0.002 0.977302,-1.742493 2.114112,-2.492188 3.525391,-2.492188 1.174704,0 2.23614,0.325744 3.242187,0.958985 l 1,3.966796 0.488281,0.34375 h 2.121094 l 0.5,-0.439453 V 18.269531 L 41.363281,17.847656 C 38.95944,17.221301 36.464545,16.908204 33.882812,16.908203 Z m 0,0.876953 c 2.36593,0 4.634495,0.31392 6.837891,0.857422 v 5.720703 H 39.5 l -0.960938,-3.810547 -0.1875,-0.255859 C 37.154004,19.50389 35.807645,19.09375 34.369141,19.09375 c -1.83861,0 -3.353506,1.077556 -4.423829,2.988281 v 0.002 c -1.053941,1.91183 -1.647386,4.519388 -1.828125,7.839844 l 0.695313,0.423828 c 1.717289,-0.650621 3.404094,-0.970703 5.070312,-0.970703 2.88106,0 5.012863,0.698518 6.515625,2.072266 l 0.002,0.002 c 1.51696,1.372859 2.294921,3.354357 2.294921,6.035156 0,2.93698 -0.850919,5.119094 -2.513671,6.634766 0,0 -0.002,0 -0.002,0 0,0 0,0.002 0,0.002 -1.664734,1.501878 -4.025891,2.265625 -7.199218,2.265625 -3.611513,0 -6.284068,-1.167112 -8.199219,-3.560547 v -0.002 c -1.897793,-2.392687 -2.884766,-5.922047 -2.884766,-10.609375 0,-3.040311 0.514254,-5.647576 1.523438,-7.824219 1.028197,-2.182111 2.44137,-3.81239 4.240234,-4.929687 1.802233,-1.119389 3.858476,-1.677735 6.222656,-1.677735 z m -1.634765,13.392578 c -1.25464,0 -2.530514,0.172182 -3.824219,0.511719 l -0.357422,0.417969 v 0.109375 c 0,4.171432 0.353259,7.310308 1.09961,9.46289 0.373175,1.076291 0.844944,1.911627 1.458984,2.501954 0.614041,0.590326 1.40191,0.919921 2.257812,0.919921 1.366786,0 2.432792,-0.742865 2.933594,-1.984375 0.490172,-1.215155 0.708985,-2.940055 0.708985,-5.222656 0,-2.054328 -0.314627,-3.668008 -1.00586,-4.851562 -0.69491,-1.189848 -1.85552,-1.865235 -3.271484,-1.865235 z m 0,0.876953 c 1.087375,0 1.811749,0.409488 2.384765,1.390625 0.576693,0.987434 0.894532,2.475799 0.894532,4.449219 0,2.230764 -0.234164,3.888159 -0.654297,4.929688 -0.409503,1.015173 -0.983724,1.400391 -1.990235,1.40039 -0.582706,0 -1.054614,-0.187803 -1.519531,-0.634765 -0.464915,-0.446961 -0.894105,-1.16773 -1.240234,-2.166016 -0.675369,-1.947862 -1.027568,-4.966821 -1.044922,-8.943359 1.077781,-0.254468 2.138684,-0.425781 3.169922,-0.425782 z"
   style="font-weight:bold;font-size:46.8088px;line-height:1;font-family:'Liberation Serif';text-align:center;letter-spacing:0.38px;baseline-shift:baseline;white-space:pre;display:inline;overflow:visible;vector-effect:none;fill-rule:evenodd;stroke-linecap:square;stroke-miterlimit:1;enable-background:accumulate;stop-color:#000000;stop-opacity:1"
   id="path8" /></svg>
